<svg width="168" height="106" viewBox="0 0 168 106" fill="none" xmlns="http://www.w3.org/2000/svg">
<path d="M39.7725 3.0049C36.7059 7.0049 31.7725 17.8049 30.0392 24.7382C28.9725 29.0049 27.7725 30.6049 23.9059 32.3382C17.9059 35.2716 5.63922 46.7382 1.90588 53.1382C-0.494118 57.2716 -0.627451 57.6716 1.50588 55.8049C2.97255 54.6049 6.03922 52.6049 8.43922 51.4049C14.8392 48.0716 19.6392 43.6716 17.9059 42.6049C16.9725 41.9382 17.2392 41.4049 18.7059 40.8716C20.0392 40.2049 20.5725 40.4716 19.9059 41.4049C19.3725 42.3382 19.7725 42.7382 20.8392 42.3382C21.9059 41.9382 22.5725 41.0049 22.4392 40.2049C22.1725 39.4049 23.3725 37.9382 25.1059 37.1382C27.7725 35.6716 27.9059 35.6716 26.1725 37.8049C24.5725 39.6716 24.5725 39.9382 26.7059 39.1382C28.0392 38.6049 28.8392 38.7382 28.4392 39.4049C27.9059 40.0716 27.2392 49.6716 26.7059 60.6049C26.1725 71.6716 25.6392 80.7382 25.5059 80.8716C25.3725 81.0049 19.9059 82.2049 13.3725 83.4049C6.70588 84.7382 1.23922 85.9382 1.10588 85.9382C-0.227451 86.4716 2.83922 91.9382 4.57255 92.0716C5.77255 92.0716 6.03922 92.4716 5.10588 92.7382C2.97255 93.6716 7.50588 98.3382 9.77255 97.5382C10.8392 97.1382 11.1059 97.6716 10.5725 99.1382C10.1725 100.338 10.4392 101.272 11.2392 101.272C12.0392 101.272 12.7059 102.072 12.7059 103.138C12.7059 107.672 27.1059 106.072 34.3059 100.738C36.4392 99.2716 40.4392 97.9382 43.6392 97.8049C52.5725 97.5382 52.9725 97.4049 52.3059 95.5382C51.1059 92.3382 53.5059 90.3382 58.5725 90.2049C61.2392 90.0716 63.3725 89.5382 63.3725 88.8716C63.3725 88.2049 64.8392 87.9382 66.7059 88.2049C68.7059 88.6049 69.6392 88.3382 69.1059 87.5382C68.5725 86.7382 69.6392 86.4716 71.7725 86.8716C73.7725 87.2716 74.9725 87.0049 74.5725 86.4716C74.1725 85.8049 74.5725 85.2716 75.3725 85.2716C76.1725 85.2716 76.4392 84.7382 76.0392 83.9382C75.6392 83.2716 75.7725 82.6049 76.5725 82.6049C77.2392 82.6049 78.3059 83.2716 78.7059 83.9382C79.2392 84.7382 80.7059 85.0049 82.0392 84.6049C85.2392 83.5382 90.0392 82.4716 93.6392 81.9382C95.3725 81.6716 98.9725 81.1382 101.639 80.7382C104.439 80.3382 111.506 79.6716 117.373 79.2716C123.239 78.8716 128.573 77.9382 129.373 77.1382C130.039 76.4716 134.039 75.9382 138.439 75.9382C143.906 75.9382 146.839 75.2716 148.439 73.8049C150.439 71.8049 150.573 71.8049 151.506 74.0716C152.039 75.5382 152.573 75.8049 152.573 74.7382C152.706 73.2716 153.106 73.2716 154.706 74.6049C156.973 76.4716 161.373 75.4049 160.039 73.2716C159.506 72.4716 160.706 71.9382 162.573 71.9382C164.973 71.9382 165.773 71.4049 165.239 69.9382C164.706 68.8716 163.906 68.3382 163.239 68.7382C162.573 69.1382 162.039 68.7382 162.039 68.0716C162.039 67.2716 163.106 66.6049 164.439 66.6049C166.439 66.4716 166.439 66.3382 164.173 64.6049C161.506 62.6049 161.506 62.6049 164.173 62.4716C171.106 62.0716 158.973 60.2049 148.973 60.0716C141.906 59.9382 138.173 59.4049 138.706 58.6049C139.106 57.9382 140.706 57.2716 142.039 57.2716C145.373 57.2716 150.039 51.1382 150.039 46.4716C150.039 44.4716 149.373 41.1382 148.573 39.0049C147.239 35.5382 147.639 34.8716 152.173 31.0049C154.973 28.7382 160.039 25.4049 163.239 23.8049C166.706 22.0716 168.439 20.4716 167.506 20.2049C166.439 19.8049 160.839 22.0716 154.973 25.1382C143.373 31.2716 142.039 31.0049 142.039 23.0049C142.039 19.9382 143.106 17.9382 145.639 15.9382C149.239 13.1382 149.239 13.0049 146.839 11.1382C143.106 8.47156 142.306 8.73823 137.239 13.8049C131.639 19.4049 131.373 23.5382 136.173 31.5382L139.506 37.4049L135.506 43.8049C130.839 50.8716 130.439 54.0716 133.373 57.2716C135.106 59.2716 135.106 59.5382 133.106 59.4049C126.439 59.1382 102.439 61.8049 91.3725 64.0716C84.4392 65.4049 68.8392 69.1382 56.7059 72.2049L34.7059 77.9382L35.1059 59.9382C35.5059 35.9382 35.9059 34.4716 40.8392 31.5382C43.1059 30.3382 45.7725 29.2716 46.8392 29.2716C47.9059 29.2716 48.7059 28.7382 48.7059 28.0716C48.7059 26.2049 44.8392 25.1382 41.2392 26.0716C38.1725 26.8716 37.9059 26.6049 38.8392 23.1382C40.1725 17.2716 44.8392 5.27156 45.6392 5.27156C46.0392 5.27156 46.0392 6.47156 45.6392 8.07156C44.7059 11.5382 45.7725 14.6049 48.0392 14.6049C52.0392 14.6049 52.7059 3.4049 48.8392 1.27156C44.8392 -0.861769 42.4392 -0.328436 39.7725 3.0049ZM142.439 50.8716C141.239 52.2049 139.773 53.2716 139.106 53.2716C137.239 53.2716 137.906 47.9382 140.306 43.6716L142.706 39.8049L143.639 44.2049C144.306 47.4049 143.906 49.2716 142.439 50.8716ZM145.106 74.2049C144.173 74.4716 142.306 74.4716 141.106 74.2049C139.773 73.8049 140.573 73.5382 142.706 73.5382C144.973 73.5382 145.906 73.8049 145.106 74.2049ZM25.1059 103.538C24.1725 103.805 22.5725 103.805 21.7725 103.538C20.8392 103.138 21.5059 102.872 23.3725 102.872C25.2392 102.872 25.9059 103.138 25.1059 103.538Z" fill="black"/>
<path d="M102.573 20.8715C99.2392 28.4715 99.2392 45.4048 102.573 49.1382C106.039 53.0048 108.439 52.6048 113.506 47.8048L117.773 43.6715L119.506 49.5382C121.773 56.4715 126.573 58.7382 125.239 52.2048C124.839 49.9382 125.773 41.8048 127.373 34.0715C128.973 26.3382 130.039 19.1382 129.639 17.9382C128.439 15.1382 123.506 15.4048 122.439 18.2048C120.173 25.0048 112.706 39.6715 110.306 42.6048L107.506 45.9382L108.306 40.6048C108.706 37.6715 109.773 31.6715 110.573 27.1382C112.439 17.4048 112.173 15.9382 107.906 15.9382C105.506 15.9382 104.173 17.1382 102.573 20.8715Z" fill="black"/>
<path d="M80.4392 20.8715C70.4392 31.2715 68.9726 52.4715 78.0392 57.2715C82.0392 59.4049 86.1726 56.4715 91.2392 47.5382C93.5059 43.5382 95.3726 39.9382 95.3726 39.4049C95.3726 39.0049 92.5726 41.2715 89.1059 44.4715C85.6392 47.8049 82.3059 50.0715 81.6392 49.6715C80.0392 48.7382 81.7726 35.2715 84.3059 28.8715C86.1726 24.2049 86.4392 24.0715 88.1726 26.2049C89.9059 28.4715 90.1726 28.4715 92.0392 26.0715C93.7726 23.8049 93.7726 23.0049 92.1726 20.7382C89.3726 16.4715 84.5726 16.6049 80.4392 20.8715Z" fill="black"/>
<path d="M56.8392 23.5381C50.3059 29.8048 46.1725 38.7381 46.0392 46.3382C46.0392 51.2715 46.8392 53.0048 50.5725 56.7382C53.1059 59.2715 55.6392 61.2715 56.4392 61.2715C60.8392 61.2715 67.6392 48.7382 69.9059 36.3381C71.3725 29.0048 69.2392 22.3381 64.8392 19.9381C62.4392 18.7381 61.3725 19.2715 56.8392 23.5381ZM62.9725 35.4048C62.0392 44.6048 55.9059 55.2715 53.7725 51.4048C51.6392 47.6715 53.7725 37.6715 57.5059 33.6715C59.2392 31.8048 60.7059 29.6715 60.7059 29.1381C60.7059 28.4715 61.3725 27.9381 62.1725 27.9381C63.2392 27.9381 63.5059 30.2048 62.9725 35.4048Z" fill="black"/>
<path d="M136.439 78.2048C138.039 78.4715 140.439 78.4715 141.773 78.2048C142.973 77.8048 141.639 77.5381 138.706 77.6715C135.773 77.6715 134.706 77.9381 136.439 78.2048Z" fill="black"/>
<path d="M155.106 78.2048C156.039 78.6048 157.239 78.4714 157.639 78.0714C158.173 77.6714 157.373 77.2714 155.906 77.4048C154.439 77.4048 154.039 77.8048 155.106 78.2048Z" fill="black"/>
<path d="M107.373 82.6049C105.639 83.6716 105.773 83.9382 107.773 83.9382C108.973 83.9382 110.039 83.2716 110.039 82.6049C110.039 81.0049 109.906 81.0049 107.373 82.6049Z" fill="black"/>
<path d="M92.7059 85.2716C92.7059 85.9383 94.1726 86.605 96.0393 86.605C97.9059 86.605 99.3726 85.9383 99.3726 85.2716C99.3726 84.4716 97.9059 83.9383 96.0393 83.9383C94.1726 83.9383 92.7059 84.4716 92.7059 85.2716Z" fill="black"/>
<path d="M80.4392 87.5383C81.3725 87.9383 82.5725 87.8049 82.9725 87.4049C83.5059 87.0049 82.7059 86.6049 81.2392 86.7383C79.7725 86.7383 79.3725 87.1383 80.4392 87.5383Z" fill="black"/>
</svg>
