<svg width="24" height="24" viewBox="0 0 24 24" fill="none" xmlns="http://www.w3.org/2000/svg">
<mask id="mask0_4_1168" style="mask-type:luminance" maskUnits="userSpaceOnUse" x="0" y="0" width="24" height="24">
<path d="M24 0H0V24H24V0Z" fill="white"/>
</mask>
<g mask="url(#mask0_4_1168)">
<path d="M17.6137 15.5148C19.066 13.5326 19.7166 11.0751 19.4351 8.63383C19.1535 6.19257 17.9607 3.94764 16.0954 2.34816C14.23 0.74868 11.8295 -0.087382 9.37423 0.00723677C6.91896 0.101857 4.58994 1.12018 2.85314 2.85848C1.11633 4.59678 0.0998186 6.92685 0.00696952 9.38254C-0.0858796 11.8382 0.751781 14.2384 2.35237 16.103C3.95295 17.9675 6.19842 19.1588 8.63953 19.4386C11.0806 19.7185 13.5374 19.0661 15.5182 17.612H15.5167C15.5617 17.672 15.6097 17.7291 15.6637 17.7846L21.4385 23.5602C21.7198 23.8417 22.1013 23.9999 22.4992 24C22.897 24.0001 23.2787 23.8422 23.5602 23.5609C23.8416 23.2796 23.9998 22.898 24 22.5C24.0001 22.1021 23.8422 21.7205 23.5609 21.4389L17.7861 15.6633C17.7325 15.609 17.6748 15.5604 17.6137 15.5148ZM18.0006 9.74823C18.0006 10.8317 17.7872 11.9047 17.3727 12.9057C16.9581 13.9068 16.3504 14.8163 15.5843 15.5824C14.8184 16.3486 13.9089 16.9564 12.9079 17.371C11.9071 17.7857 10.8343 17.9991 9.75096 17.9991C8.6676 17.9991 7.59484 17.7857 6.59395 17.371C5.59305 16.9564 4.68362 16.3486 3.91756 15.5824C3.15151 14.8163 2.54384 13.9068 2.12926 12.9057C1.71468 11.9047 1.50128 10.8317 1.50128 9.74823C1.50128 7.55996 2.37045 5.46133 3.91756 3.914C5.46468 2.36666 7.56302 1.49738 9.75096 1.49738C11.9389 1.49738 14.0373 2.36666 15.5843 3.914C17.1315 5.46133 18.0006 7.55996 18.0006 9.74823Z" fill="#323232"/>
</g>
</svg>
