<svg width="24" height="24" viewBox="0 0 24 24" fill="none" xmlns="http://www.w3.org/2000/svg">
<path d="M9 18.353C7.34579 18.353 6 19.6197 6 21.1766C6 22.7335 7.34579 24 9 24C10.6542 24 12 22.7335 12 21.1766C12 19.6197 10.6542 18.353 9 18.353ZM9 22.3059C8.3382 22.3059 7.80002 21.7994 7.80002 21.1766C7.80002 20.5537 8.3382 20.0471 9 20.0471C9.66147 20.0471 10.2 20.5537 10.2 21.1766C10.2 21.7993 9.6618 22.3059 9 22.3059Z" fill="black"/>
<path d="M17.4 18.353C15.7458 18.353 14.4 19.6197 14.4 21.1766C14.4 22.7335 15.7458 24 17.4 24C19.0542 24 20.4 22.7335 20.4 21.1766C20.4 19.6197 19.0542 18.353 17.4 18.353ZM17.4 22.3059C16.7382 22.3059 16.2 21.7994 16.2 21.1766C16.2 20.5537 16.7382 20.0471 17.4 20.0471C18.0618 20.0471 18.6 20.5537 18.6 21.1766C18.6 21.7993 18.0618 22.3059 17.4 22.3059Z" fill="black"/>
<path d="M22.6152 6.04953C22.4537 5.82776 22.2087 5.69865 21.9496 5.69865H7.05939L6.28639 1.4303C6.21864 1.05647 5.94879 0.765673 5.60551 0.696925L2.20396 0.0155794C1.74109 -0.0776492 1.29888 0.257179 1.21412 0.761985C1.12936 1.26679 1.43521 1.75085 1.89728 1.84346L4.7302 2.41083L7.2258 16.1923C7.3046 16.6275 7.65411 16.9412 8.06001 16.9412H19.9653C20.3614 16.9412 20.7047 16.643 20.794 16.2208L22.7781 6.8368C22.8366 6.56084 22.7764 6.27096 22.6152 6.04953ZM19.2891 15.083H8.75843L7.39584 7.55719H20.8801L19.2891 15.083Z" fill="black"/>
</svg>
